<?xml version="1.0" encoding="UTF-8" standalone="no"?>
<svg width="344px" height="76px" viewBox="0 0 344 76" version="1.1" xmlns="http://www.w3.org/2000/svg" xmlns:xlink="http://www.w3.org/1999/xlink" xmlns:sketch="http://www.bohemiancoding.com/sketch/ns">
    <!-- Generator: Sketch 3.1.1 (8761) - http://www.bohemiancoding.com/sketch -->
    <title>Page Artboard</title>
    <desc>Created with Sketch.</desc>
    <defs></defs>
    <g id="Page-1" stroke="none" stroke-width="1" fill="none" fill-rule="evenodd" sketch:type="MSPage">
        <g id="Page-Artboard" sketch:type="MSArtboardGroup" fill="#000000">
            <g id="Imported-Layers" sketch:type="MSLayerGroup" transform="translate(1.000000, 2.000000)">
                <path d="M28.529,65.896 C21.88,65.896 16.471,60.893 16.471,54.744 L18.893,54.744 C18.893,59.558 23.216,63.474 28.529,63.474 C33.843,63.474 38.166,59.558 38.166,54.744 L40.589,54.744 C40.589,60.893 35.179,65.896 28.529,65.896" id="Fill-1" sketch:type="MSShapeGroup"></path>
                <path d="M34.785,54.83 C34.785,58.333 32.094,61.172 28.775,61.172 C25.457,61.172 22.766,58.333 22.766,54.83 L22.766,37.727 C22.766,34.224 25.457,31.384 28.775,31.384 C32.094,31.384 34.785,34.224 34.785,37.727 L34.785,54.83" id="Fill-2" sketch:type="MSShapeGroup"></path>
                <path d="M39.81,29.018 C33.564,22.774 23.404,22.774 17.16,29.018 L15.447,27.305 C22.636,20.117 34.332,20.116 41.522,27.305 L39.81,29.018" id="Fill-3" sketch:type="MSShapeGroup"></path>
                <path d="M47.259,21.313 C36.796,10.85 19.771,10.849 9.308,21.313 L7.595,19.6 C19.003,8.191 37.564,8.192 48.972,19.6 L47.259,21.313" id="Fill-4" sketch:type="MSShapeGroup"></path>
                <path d="M55.249,13.323 C48.033,6.107 38.438,2.133 28.232,2.133 C18.027,2.133 8.432,6.107 1.216,13.323 L-0.497,11.611 C7.177,3.936 17.379,-0.29 28.232,-0.29 C39.085,-0.29 49.288,3.936 56.962,11.611 L55.249,13.323" id="Fill-5" sketch:type="MSShapeGroup"></path>
                <path d="M35.817,72.52 L21.761,72.52 L21.761,70.098 L27.561,70.098 L27.561,64.685 L29.984,64.685 L29.984,70.098 L35.817,70.098 L35.817,72.52" id="Fill-6" sketch:type="MSShapeGroup"></path>
                <path d="M271.609,70.039 C271.609,71.454 270.462,72.601 269.047,72.601 C267.632,72.601 266.485,71.454 266.485,70.039 C266.485,68.625 267.632,67.478 269.047,67.478 C270.462,67.478 271.609,68.625 271.609,70.039" id="Fill-7" sketch:type="MSShapeGroup"></path>
                <path d="M294.814,38.7 C291.372,38.7 289.75,40.765 289.75,45.043 L289.75,47.452 L298.502,47.452 L298.502,49.664 L289.75,49.664 L289.75,72.528 L287.34,72.528 L287.34,49.664 L283.702,49.664 L283.702,47.452 L287.34,47.452 L287.34,44.993 C287.34,39.585 290.094,36.487 294.814,36.487 C296.338,36.487 297.42,36.684 298.551,37.077 L298.551,39.339 C297.125,38.896 296.093,38.7 294.814,38.7" id="Fill-8" sketch:type="MSShapeGroup"></path>
                <path d="M339.318,72.502 L339.318,57.604 C339.318,52.196 336.516,49.049 331.893,49.049 C327.665,49.049 323.977,52.294 323.977,57.899 L323.977,72.502 L321.568,72.502 L321.568,57.457 C321.568,52.245 318.717,49.049 314.242,49.049 C309.768,49.049 306.228,52.982 306.228,58.047 L306.228,72.502 L303.818,72.502 L303.818,47.426 L306.228,47.426 L306.228,51.901 C307.85,49.295 310.112,46.836 314.586,46.836 C318.962,46.836 321.666,49.344 323.043,52.245 C324.666,49.442 327.37,46.836 332.09,46.836 C338.039,46.836 341.727,51.015 341.727,57.309 L341.727,72.502 L339.318,72.502" id="Fill-9" sketch:type="MSShapeGroup"></path>
                <path d="M79.472,31.969 L73.067,31.969 L73.067,22.315 L79.472,22.315 L79.472,18.682 C79.472,13.074 80.854,8.899 83.617,6.159 C86.316,3.482 90.128,2.144 95.054,2.144 C97.093,2.144 98.845,2.272 100.312,2.526 C101.777,2.782 103.147,3.1 104.422,3.482 L104.422,13.233 C103.275,12.85 102.176,12.549 101.124,12.325 C100.073,12.102 98.91,11.99 97.635,11.99 C93.174,11.99 90.944,14.54 90.944,19.638 L90.944,22.41 L104.327,22.41 L104.327,31.969 L91.135,31.969 L91.135,72.502 L79.472,72.502 L79.472,31.969" id="Fill-10" sketch:type="MSShapeGroup"></path>
                <path d="M135.968,73.649 C132.336,73.649 128.942,73.011 125.787,71.737 C122.633,70.463 119.892,68.678 117.566,66.384 C115.239,64.09 113.408,61.334 112.069,58.115 C110.731,54.898 110.062,51.344 110.062,47.456 L110.062,47.265 C110.062,43.632 110.667,40.224 111.878,37.036 C113.088,33.85 114.794,31.061 116.992,28.671 C119.191,26.282 121.787,24.402 124.784,23.031 C127.778,21.661 131.093,20.976 134.725,20.976 C138.74,20.976 142.261,21.709 145.289,23.175 C148.315,24.642 150.833,26.616 152.841,29.101 C154.848,31.587 156.362,34.472 157.382,37.753 C158.4,41.036 158.911,44.492 158.911,48.125 C158.911,48.636 158.895,49.162 158.863,49.702 C158.83,50.245 158.783,50.802 158.72,51.375 L121.629,51.375 C122.265,55.519 123.907,58.688 126.552,60.887 C129.196,63.086 132.398,64.185 136.159,64.185 C139.027,64.185 141.513,63.676 143.616,62.655 C145.719,61.637 147.789,60.139 149.83,58.163 L156.617,64.185 C154.194,67.053 151.311,69.348 147.966,71.068 C144.62,72.789 140.619,73.649 135.968,73.649 L135.968,73.649 Z M147.44,43.728 C147.248,41.88 146.833,40.143 146.197,38.518 C145.559,36.893 144.699,35.491 143.616,34.311 C142.531,33.133 141.241,32.193 139.744,31.491 C138.246,30.791 136.542,30.44 134.63,30.44 C131.06,30.44 128.113,31.668 125.787,34.12 C123.46,36.574 122.042,39.777 121.533,43.728 L147.44,43.728 L147.44,43.728 Z" id="Fill-11" sketch:type="MSShapeGroup"></path>
                <path d="M201.45,72.502 L201.45,66.288 C199.73,68.329 197.531,70.049 194.854,71.45 C192.178,72.852 188.927,73.554 185.103,73.554 C182.681,73.554 180.386,73.219 178.221,72.55 C176.053,71.88 174.158,70.893 172.533,69.586 C170.908,68.281 169.601,66.656 168.613,64.711 C167.624,62.768 167.132,60.521 167.132,57.972 L167.132,57.78 C167.132,54.977 167.641,52.539 168.661,50.467 C169.68,48.397 171.098,46.676 172.915,45.305 C174.731,43.935 176.897,42.915 179.415,42.246 C181.932,41.577 184.657,41.242 187.589,41.242 C190.648,41.242 193.244,41.434 195.38,41.816 C197.514,42.198 199.57,42.709 201.546,43.345 L201.546,42.389 C201.546,38.885 200.478,36.209 198.343,34.359 C196.207,32.512 193.134,31.587 189.119,31.587 C186.25,31.587 183.701,31.874 181.471,32.448 C179.239,33.021 176.978,33.786 174.684,34.742 L171.529,25.469 C174.332,24.195 177.201,23.175 180.132,22.41 C183.063,21.645 186.6,21.263 190.744,21.263 C198.263,21.263 203.84,23.127 207.473,26.855 C211.106,30.583 212.922,35.826 212.922,42.581 L212.922,72.502 L201.45,72.502 L201.45,72.502 Z M201.737,51.375 C200.27,50.802 198.535,50.324 196.527,49.941 C194.52,49.559 192.4,49.368 190.17,49.368 C186.537,49.368 183.701,50.07 181.662,51.471 C179.621,52.874 178.603,54.785 178.603,57.207 L178.603,57.398 C178.603,59.821 179.542,61.669 181.423,62.942 C183.302,64.218 185.613,64.854 188.354,64.854 C190.265,64.854 192.034,64.601 193.659,64.09 C195.284,63.58 196.702,62.863 197.913,61.939 C199.123,61.016 200.064,59.9 200.734,58.593 C201.402,57.288 201.737,55.837 201.737,54.243 L201.737,51.375 L201.737,51.375 Z" id="Fill-12" sketch:type="MSShapeGroup"></path>
                <path d="M243.703,73.362 C241.598,73.362 239.646,73.107 237.848,72.597 C236.047,72.088 234.489,71.259 233.172,70.112 C231.854,68.965 230.843,67.452 230.137,65.571 C229.429,63.692 229.076,61.35 229.076,58.545 L229.076,31.969 L222.672,31.969 L222.672,22.027 L229.076,22.027 L229.076,8.166 L240.739,8.166 L240.739,22.027 L254.314,22.027 L254.314,31.969 L240.739,31.969 L240.739,56.729 C240.739,58.96 241.279,60.569 242.364,61.556 C243.447,62.545 244.977,63.038 246.953,63.038 C249.438,63.038 251.829,62.464 254.123,61.317 L254.123,70.781 C252.655,71.61 251.095,72.248 249.438,72.693 C247.78,73.138 245.868,73.362 243.703,73.362" id="Fill-13" sketch:type="MSShapeGroup"></path>
            </g>
        </g>
    </g>
</svg>
